<svg width="24" height="24" viewBox="0 0 24 24" fill="none" xmlns="http://www.w3.org/2000/svg">
<path fill-rule="evenodd" clip-rule="evenodd" d="M14.0126 4.95873C13.5675 2.74683 10.4326 2.74683 9.98748 4.95873C9.88724 5.45688 9.31763 5.65158 8.94403 5.35085C7.15266 3.90885 4.8192 6.0182 5.856 7.95339C6.09851 8.40603 5.77576 8.93422 5.30033 8.94698C3.04746 9.00745 2.53898 12.1198 4.59892 12.9423C5.05151 13.123 5.16592 13.7372 4.79197 14.0725C3.15752 15.5377 4.6448 18.3159 6.80999 17.5831C7.25753 17.4316 7.73609 17.8098 7.66093 18.3202C7.33757 20.516 10.2597 21.6607 11.4449 19.7036C11.7007 19.2812 12.2994 19.2812 12.5552 19.7036C13.7404 21.6607 16.6626 20.516 16.3392 18.3202C16.264 17.8098 16.7426 17.4316 17.1901 17.5831C19.3553 18.3159 20.8426 15.5377 19.2082 14.0725C18.8342 13.7372 18.9486 13.123 19.4012 12.9423C21.4611 12.1198 20.9527 9.00745 18.6998 8.94698C18.2244 8.93422 17.9016 8.40603 18.1441 7.95339C19.1809 6.01821 16.8475 3.90884 15.0561 5.35085C14.6825 5.65158 14.1129 5.45688 14.0126 4.95873ZM11.36 5.23492C11.5036 4.52143 12.4966 4.52143 12.6402 5.23492C12.9434 6.74184 14.7257 7.41401 15.934 6.44141C16.4505 6.02564 17.2792 6.60325 16.9101 7.29223C16.189 8.63821 17.1177 10.305 18.6622 10.3465C19.3565 10.3651 19.5649 11.3694 18.8821 11.6421C17.4548 12.2119 17.1346 14.0937 18.2736 15.1149C18.8466 15.6286 18.2699 16.4705 17.639 16.257C16.17 15.7598 14.7313 17.0107 14.9541 18.5242C15.0656 19.2813 14.1088 19.5663 13.7527 18.9784C12.9521 17.6563 11.048 17.6563 10.2474 18.9784C9.89138 19.5663 8.9345 19.2813 9.04599 18.5242C9.26887 17.0107 7.8301 15.7598 6.36115 16.257C5.73019 16.4705 5.15349 15.6286 5.7265 15.1149C6.86554 14.0937 6.54533 12.2119 5.11805 11.6421C4.43527 11.3694 4.6436 10.3651 5.3379 10.3465C6.88248 10.305 7.81117 8.63821 7.09005 7.29223C6.72091 6.60325 7.54964 6.02564 8.06615 6.44141C9.27438 7.41401 11.0567 6.74184 11.36 5.23492ZM10.8012 9.69982C10.8012 9.14753 10.3535 8.69982 9.80121 8.69982C9.24893 8.69982 8.80121 9.14753 8.80121 9.69982C8.80121 10.2521 9.24893 10.6998 9.80121 10.6998C10.3535 10.6998 10.8012 10.2521 10.8012 9.69982ZM14.4013 13.2998C14.9536 13.2998 15.4013 13.7475 15.4013 14.2998C15.4013 14.8521 14.9536 15.2998 14.4013 15.2998C13.849 15.2998 13.4013 14.8521 13.4013 14.2998C13.4013 13.7475 13.849 13.2998 14.4013 13.2998ZM10.2963 14.7948L14.8963 10.1948C15.1697 9.92142 15.1697 9.47821 14.8963 9.20484C14.6229 8.93148 14.1797 8.93148 13.9064 9.20484L9.30636 13.8048C9.03299 14.0782 9.03299 14.5214 9.30636 14.7948C9.57973 15.0682 10.0229 15.0682 10.2963 14.7948Z" fill="#30363C"/>
</svg>
